PathFileType	4	(X/Y/Z)	../Python\running\Running15\task.trc
DataRate	CameraRate	NumFrames	NumMarkers	Units	OrigDataRate	OrigDataStartFrame	OrigNumFrames
200.000000	200.000000	5	30	mm	200.000000	107	215
Frame#	Time	C7			RBAK			CLAV			STRN			RASI			LASI			RTH1			RTH2			RTH3			RTB2			RHEE			RD5M			RTOE			LTH3			LTB2			LTB3			LHEE			LTOE			LD5M			RTB3			RTB1			T10			PE01			LPSI			PE03			PE02			LTH2			RPSI			LTH1			LTB1			
		X1	Y1	Z1	X2	Y2	Z2	X3	Y3	Z3	X4	Y4	Z4	X5	Y5	Z5	X6	Y6	Z6	X7	Y7	Z7	X8	Y8	Z8	X9	Y9	Z9	X10	Y10	Z10	X11	Y11	Z11	X12	Y12	Z12	X13	Y13	Z13	X14	Y14	Z14	X15	Y15	Z15	X16	Y16	Z16	X17	Y17	Z17	X18	Y18	Z18	X19	Y19	Z19	X20	Y20	Z20	X21	Y21	Z21	X22	Y22	Z22	X23	Y23	Z23	X24	Y24	Z24	X25	Y25	Z25	X26	Y26	Z26	X27	Y27	Z27	X28	Y28	Z28	X29	Y29	Z29	X30	Y30	Z30	

108	0.535	-263.186248779297	1372.869750976563	157.3933258056641	-341.6311340332032	1284.356811523438	218.9210052490236	-153.7470855712891	1281.689575195313	196.3556213378907	-107.9393615722657	1102.245239257813	185.6784362792969	-159.5066070556641	896.2261352539067	261.4605407714845	-173.1384429931641	869.8237915039067	44.11138153076173	-137.9679107666016	619.073181152344	302.2351379394532	-90.63687133789065	558.338562011719	281.519012451172	-87.61077117919925	617.4277343750002	299.2556457519532	-31.7493133544922	304.1921691894532	261.8273010253907	-13.72975730895997	100.0487899780274	159.6163635253907	130.2533874511719	57.79048538208011	226.1891479492189	163.5934753417969	82.22176361083987	185.7994079589844	-308.0479125976564	592.749206542969	39.44883728027345	-624.9961547851565	365.9170532226564	115.5017166137696	-578.0516357421877	350.8420715332032	109.9598388671876	-764.6730957031252	299.3441162109376	194.4088745117189	-717.8474731445315	126.8105010986329	187.1519012451172	-743.8928833007815	151.1206359863282	139.5215301513672	11.85916423797608	281.3273010253907	250.9024658203126	-2.894473314285279	357.6439208984376	262.562713623047	-320.6612548828126	1089.019653320313	140.8945007324219	-329.1607971191407	995.4815063476567	176.9884490966797	-350.6550292968751	965.5722656250005	133.5715789794922	-367.0437011718751	941.5568237304692	153.9922485351563	-364.5523986816407	946.5685424804692	204.2767486572267	-387.1958923339846	590.231384277344	55.61938858032229	-348.1778869628907	965.9349975585942	221.850311279297	-343.0575256347657	630.0110473632815	35.39208984375001	-561.5286254882815	408.2693786621096	94.01141357421878	
109	0.54	-247.1002502441407	1371.84912109375	157.8800506591797	-326.0003356933595	1282.653076171875	219.3044433593751	-137.8931732177735	1280.764892578125	196.4920043945314	-92.15470886230472	1101.396728515625	185.2628326416016	-144.0094757080079	895.2216796875005	261.9119873046876	-156.4716186523438	869.5665893554692	44.24584197998048	-124.2705459594727	616.6718750000002	302.1374511718751	-76.71966552734378	556.1709594726565	281.3023681640626	-73.84247589111331	615.0933227539065	299.7219848632814	-20.40780639648438	301.8745117187501	260.158660888672	-4.984745502471926	98.2127304077149	156.9505310058594	138.0411376953126	53.13312911987308	223.5208129882814	171.7349395751954	77.35994720458987	183.7113800048829	-288.1584472656251	590.4995727539065	38.35164642333986	-606.4913330078127	368.5935363769532	115.2518157958985	-559.9969482421877	352.2870178222657	109.0209960937501	-747.8248291015627	303.928924560547	195.1437835693361	-701.8221435546877	131.0827178955079	184.2454833984376	-727.981872558594	156.673812866211	137.3413238525391	22.92882728576661	278.4815368652345	249.2490844726564	9.309061050415043	354.9378356933595	261.3875427246095	-304.9110412597657	1088.201538085938	140.2905883789063	-313.6080932617189	993.5236816406255	176.6687622070313	-334.8345947265626	963.7488403320317	132.885971069336	-351.2431640625001	939.6631469726567	152.8945617675782	-349.1393432617189	944.3120727539067	203.2384643554689	-367.444305419922	586.9931640625002	54.06847000122073	-332.8905639648439	963.7695312500005	221.0325164794923	-323.5663452148439	627.3276367187502	34.09827041625978	-541.9783935546877	409.441589355469	93.53923034667972	
110	0.545	-231.0413208007814	1370.5791015625	158.3931274414063	-310.352508544922	1280.696044921875	219.7616424560548	-122.0157470703126	1279.582153320313	196.6029205322267	-76.36763000488284	1100.172485351563	184.842758178711	-128.5466613769532	893.9867553710942	262.4430236816407	-139.8106842041016	869.0522460937505	44.42910385131837	-110.4214324951172	614.187438964844	301.9818115234376	-62.65504074096683	553.917663574219	281.0151367187501	-59.93039703369143	612.7308349609377	299.9326477050782	-9.482994079589847	299.3146972656251	258.6054687500001	2.746469736099244	95.95405578613284	154.5480499267579	144.9025878906251	48.20461273193362	220.9725341796876	178.9456787109376	72.01250457763675	181.4308319091797	-268.2559509277345	588.1296997070315	36.9607620239258	-587.580017089844	370.9010314941407	114.8934555053712	-541.558288574219	353.4440917968751	107.8997802734376	-730.4324951171877	307.9030151367189	195.7757873535157	-684.9379882812502	134.9261322021485	180.9318389892579	-711.3153076171877	161.8185424804688	134.8461914062501	33.47047042846681	275.2762451171876	247.6315002441407	21.20310974121094	351.8837280273439	260.246307373047	-289.1591186523439	1087.097412109375	139.6430664062501	-298.1731567382814	991.2011718750005	176.1757202148438	-319.082489013672	961.5473632812505	132.1515350341797	-335.5089721679689	937.3897094726567	151.7684478759766	-333.7631225585939	941.7229614257817	202.1617279052736	-347.5785522460939	583.5987548828127	52.50118637084964	-317.6332092285157	961.2309570312505	220.1287231445314	-304.0700073242189	624.506286621094	32.7161102294922	-522.117126464844	410.3382873535159	92.98372650146487	
111	0.55	-215.0105438232423	1369.055297851563	158.9348754882813	-294.6844177246095	1278.478271484375	220.2901153564454	-106.1103439331055	1278.132446289063	196.692108154297	-60.57094573974612	1098.567626953125	184.4234313964844	-113.1177597045899	892.5247192382817	263.0412902832032	-123.164047241211	868.2622680664067	44.65792083740236	-96.41696929931646	611.6401367187502	301.7762451171876	-48.45536041259768	551.580505371094	280.6840209960939	-45.87038421630861	610.3463134765627	299.9034118652345	1.02373492717743	296.5137329101564	257.174530029297	9.492423057556156	93.27148437500003	152.3987426757813	150.9093322753907	43.1465301513672	218.5729064941407	185.3099822998047	66.34204101562503	178.9600372314454	-248.3505706787111	585.642517089844	35.31504058837892	-568.261413574219	372.7783203125001	114.4025115966797	-522.7253417968752	354.2607421875001	106.6000900268555	-712.5209960937502	311.2091674804689	196.2866363525392	-667.1956176757815	138.3021087646485	177.2549896240235	-693.8864746093752	166.4912109375001	132.0573883056641	43.47964096069337	271.722381591797	246.0550384521486	32.77287673950197	348.4784545898439	259.1486206054689	-273.4031982421876	1085.702392578125	138.9551544189454	-282.8575744628907	988.542358398438	175.4978179931641	-303.3942871093751	958.9862670898442	131.3625488281251	-319.8347167968751	934.7561035156255	150.6164093017579	-318.4156188964845	938.8295898437505	201.0486602783204	-327.6167907714845	580.0471801757815	50.92315673828128	-302.3965148925782	958.3519897460942	219.1412048339845	-284.5852355957032	621.5505981445315	31.26317977905275	-501.9458618164065	410.9036865234377	92.313835144043	
112	0.555	-199.0079193115236	1367.274780273438	159.5066680908204	-278.9929199218751	1275.993774414063	220.8883361816407	-90.17230987548831	1276.407104492188	196.7627410888673	-44.75820541381837	1096.57958984375	184.008529663086	-97.72428894042974	890.8407592773442	263.6937561035157	-106.541862487793	867.1801147460942	44.9283905029297	-82.26294708251956	609.0444946289065	301.5315551757814	-34.14172744750978	549.156433105469	280.338348388672	-31.66760826110841	607.9365844726565	299.6654052734376	11.11543560028077	293.481414794922	255.8706817626954	15.2718210220337	90.17136383056643	150.4902801513672	156.1237792968751	38.11416625976564	216.3602294921876	190.9063873291016	60.53112411499026	176.3258666992188	-228.4500579833986	583.0339355468752	33.46711730957033	-548.5344848632815	374.1690063476564	113.7521972656251	-503.4868774414065	354.686248779297	105.1250152587891	-694.1140136718752	313.8047180175782	196.650604248047	-648.6096191406252	141.1795349121094	173.2600097656251	-675.6959228515627	170.6363067626954	128.9957580566407	52.95532989501956	267.8410034179689	244.5216522216798	44.00736236572267	344.7284240722657	258.096649169922	-257.6419067382814	1084.013671875	138.2329406738282	-267.6607055664064	985.578247070313	174.6317749023438	-287.7656555175782	956.0863647460942	130.514144897461	-304.2148437500001	931.7854614257817	149.4410552978516	-303.0913696289064	935.6614379882817	199.9019165039064	-307.5763549804689	576.3333740234377	49.34246826171878	-287.1741333007814	955.169067382813	218.0749664306642	-265.1230773925782	618.4568481445315	29.76011276245119	-481.4633789062502	411.084167480469	91.49761962890628	
